<svg width="26" height="22" viewBox="0 0 26 22" fill="none" xmlns="http://www.w3.org/2000/svg">
<path fill-rule="evenodd" clip-rule="evenodd" d="M4.6241 2.59999C5.70874 0.565472 8.56772 0.501979 9.76335 2.40927L9.98484 2.79071C11.1418 4.63697 13.8564 4.63692 15.0134 2.79071L15.2348 2.40927C16.4305 0.50205 19.2895 0.565414 20.3741 2.59999L23.7251 8.88666C25.5266 12.2669 23.9029 16.2111 20.7181 17.6179L14.6217 20.8243C14.1774 21.0579 13.6899 20.5943 13.9008 20.1388L14.8216 18.15H6.83381C2.07863 18.15 -0.962343 13.0831 1.27414 8.88666L4.6241 2.59999ZM9.28552 9.05277C8.53399 9.05283 7.92497 9.81451 7.92483 10.7539C7.92483 11.6934 8.5339 12.455 9.28552 12.455C10.0371 12.4549 10.6462 11.6934 10.6462 10.7539C10.6461 9.81456 10.037 9.05291 9.28552 9.05277ZM15.6778 9.05277C14.9262 9.05277 14.3162 9.81448 14.3161 10.7539C14.3161 11.6935 14.9261 12.455 15.6778 12.455C16.4293 12.4547 17.0385 11.6933 17.0385 10.7539C17.0384 9.81467 16.4292 9.05308 15.6778 9.05277Z" fill="url(#paint0_linear_804_3028)"/>
<defs>
<linearGradient id="paint0_linear_804_3028" x1="12.4994" y1="1.02499" x2="14.5994" y2="30.6877" gradientUnits="userSpaceOnUse">
<stop stop-color="#EBF7CE"/>
<stop offset="1" stop-color="#A4CC08"/>
</linearGradient>
</defs>
</svg>
