<svg width="64" height="64" viewBox="0 0 64 64" fill="none" xmlns="http://www.w3.org/2000/svg">
<rect width="64" height="64" rx="32" fill="#3A3E40"/>
<path d="M22.6667 25.3335H24C24.7072 25.3335 25.3855 25.0525 25.8856 24.5524C26.3857 24.0524 26.6667 23.3741 26.6667 22.6668C26.6667 22.3132 26.8071 21.9741 27.0572 21.724C27.3072 21.474 27.6464 21.3335 28 21.3335H36C36.3536 21.3335 36.6928 21.474 36.9428 21.724C37.1929 21.9741 37.3333 22.3132 37.3333 22.6668C37.3333 23.3741 37.6143 24.0524 38.1144 24.5524C38.6145 25.0525 39.2928 25.3335 40 25.3335H41.3333C42.0406 25.3335 42.7189 25.6144 43.219 26.1145C43.719 26.6146 44 27.2929 44 28.0002V40.0002C44 40.7074 43.719 41.3857 43.219 41.8858C42.7189 42.3859 42.0406 42.6668 41.3333 42.6668H22.6667C21.9594 42.6668 21.2811 42.3859 20.781 41.8858C20.281 41.3857 20 40.7074 20 40.0002V28.0002C20 27.2929 20.281 26.6146 20.781 26.1145C21.2811 25.6144 21.9594 25.3335 22.6667 25.3335Z" stroke="#A4CC08" stroke-width="2.5" stroke-linecap="round" stroke-linejoin="round"/>
<path d="M28 33.3335C28 34.3944 28.4214 35.4118 29.1716 36.1619C29.9217 36.9121 30.9391 37.3335 32 37.3335C33.0609 37.3335 34.0783 36.9121 34.8284 36.1619C35.5786 35.4118 36 34.3944 36 33.3335C36 32.2726 35.5786 31.2552 34.8284 30.5051C34.0783 29.7549 33.0609 29.3335 32 29.3335C30.9391 29.3335 29.9217 29.7549 29.1716 30.5051C28.4214 31.2552 28 32.2726 28 33.3335Z" stroke="#A4CC08" stroke-width="2.5" stroke-linecap="round" stroke-linejoin="round"/>
</svg>
