<svg width="118" height="44" viewBox="0 0 118 44" fill="none" xmlns="http://www.w3.org/2000/svg">
<rect width="118" height="44" rx="22" fill="#3A3E40"/>
<path d="M21 17H22C22.5304 17 23.0391 16.7893 23.4142 16.4142C23.7893 16.0391 24 15.5304 24 15C24 14.7348 24.1054 14.4804 24.2929 14.2929C24.4804 14.1054 24.7348 14 25 14H31C31.2652 14 31.5196 14.1054 31.7071 14.2929C31.8946 14.4804 32 14.7348 32 15C32 15.5304 32.2107 16.0391 32.5858 16.4142C32.9609 16.7893 33.4696 17 34 17H35C35.5304 17 36.0391 17.2107 36.4142 17.5858C36.7893 17.9609 37 18.4696 37 19V28C37 28.5304 36.7893 29.0391 36.4142 29.4142C36.0391 29.7893 35.5304 30 35 30H21C20.4696 30 19.9609 29.7893 19.5858 29.4142C19.2107 29.0391 19 28.5304 19 28V19C19 18.4696 19.2107 17.9609 19.5858 17.5858C19.9609 17.2107 20.4696 17 21 17Z" stroke="#A4CC08" stroke-width="2" stroke-linecap="round" stroke-linejoin="round"/>
<path d="M25 23C25 23.7956 25.3161 24.5587 25.8787 25.1213C26.4413 25.6839 27.2044 26 28 26C28.7956 26 29.5587 25.6839 30.1213 25.1213C30.6839 24.5587 31 23.7956 31 23C31 22.2044 30.6839 21.4413 30.1213 20.8787C29.5587 20.3161 28.7956 20 28 20C27.2044 20 26.4413 20.3161 25.8787 20.8787C25.3161 21.4413 25 22.2044 25 23Z" stroke="#A4CC08" stroke-width="2" stroke-linecap="round" stroke-linejoin="round"/>
<path d="M60.2295 20.5469H62.1299V21.791H60.2295V28.2305H58.7119V15.8574H60.2295V20.5469ZM56.8389 18.2637H52.5732V23.9375C53.5713 23.9375 54.4714 23.9079 55.2734 23.8486C56.0755 23.7894 56.889 23.6868 57.7139 23.541L57.8916 24.8262C56.9984 24.9811 56.1143 25.0837 55.2393 25.1338C54.3688 25.1839 53.3161 25.209 52.0811 25.209H51.0557V17.0332H56.8389V18.2637ZM67.3252 18.8242C67.3206 19.5853 67.446 20.3258 67.7012 21.0459C67.9564 21.766 68.3255 22.4062 68.8086 22.9668C69.2917 23.5273 69.859 23.9466 70.5107 24.2246L69.6084 25.4414C68.9111 25.1178 68.3027 24.6462 67.7832 24.0264C67.2682 23.4066 66.8649 22.6842 66.5732 21.8594C66.2816 22.7526 65.8691 23.5365 65.3359 24.2109C64.8073 24.8809 64.1761 25.3867 63.4424 25.7285L62.5127 24.457C63.1826 24.1699 63.7637 23.737 64.2559 23.1582C64.7526 22.5749 65.1309 21.9072 65.3906 21.1553C65.6504 20.3988 65.7803 19.6217 65.7803 18.8242V16.8555H67.3252V18.8242ZM72.9307 28.2305H71.3994V15.8574H72.9307V28.2305ZM88.5713 28.2168H87.0537V25.0039H79.8623V23.8008H88.5713V28.2168ZM88.5713 23.2266H87.0537V15.8574H88.5713V23.2266ZM81.1885 18.168C81.1885 18.7285 81.2705 19.2891 81.4346 19.8496C81.5986 20.4056 81.8743 20.891 82.2617 21.3057C82.6309 20.9001 82.8929 20.4238 83.0479 19.877C83.2028 19.3255 83.2848 18.7559 83.2939 18.168V17.9492H82.5146V16.7188H86.0693V17.9492H84.7432V18.168C84.7432 18.9154 84.8936 19.6195 85.1943 20.2803C85.4997 20.9365 85.9782 21.4355 86.6299 21.7773L85.8369 22.8574C84.9847 22.4017 84.3809 21.6497 84.0254 20.6016C83.679 21.7181 83.0889 22.5111 82.2549 22.9805C81.4255 22.5065 80.8376 21.7272 80.4912 20.6426C80.1266 21.6771 79.5251 22.4154 78.6865 22.8574L77.8799 21.7773C78.3219 21.5358 78.6842 21.2191 78.9668 20.8271C79.2539 20.4352 79.4613 20.0114 79.5889 19.5557C79.7165 19.0954 79.7803 18.6328 79.7803 18.168V17.9492H78.3447V16.7188H81.9814V17.9492H81.1885V18.168ZM100.493 28.2168H98.9619V15.8574H100.493V28.2168ZM96.8018 17.1699C96.8018 19.1341 96.3574 20.859 95.4688 22.3447C94.5801 23.8258 93.1058 25.054 91.0459 26.0293L90.2529 24.8125C91.8434 24.056 93.0397 23.1514 93.8418 22.0986C94.6484 21.0413 95.1201 19.7995 95.2568 18.373H90.8818V17.1699H96.8018Z" fill="white"/>
</svg>
