<svg width="12" height="14" viewBox="0 0 12 14" fill="none" xmlns="http://www.w3.org/2000/svg">
<path d="M8.66667 0.333008C8.78867 0.333008 8.90333 0.366341 9.00133 0.423008L9.02333 0.436341C9.21 0.554341 9.33333 0.763008 9.33333 0.999674V1.66634H10C10.5101 1.66631 11.001 1.86122 11.3722 2.2112C11.7433 2.56117 11.9667 3.03975 11.9967 3.54901L12 3.66634V11.6663C12 12.1765 11.8051 12.6673 11.4551 13.0385C11.1052 13.4097 10.6266 13.6331 10.1173 13.663L10 13.6663H2C1.48986 13.6664 0.99899 13.4715 0.627826 13.1215C0.256662 12.7715 0.0332617 12.2929 0.00333341 11.7837L3.10696e-09 11.6663V3.66634C-2.84145e-05 3.1562 0.194883 2.66533 0.544856 2.29417C0.894828 1.923 1.3734 1.6996 1.88267 1.66967L2 1.66634H2.66667V0.999674C2.66666 0.880826 2.69843 0.764137 2.75868 0.661691C2.81893 0.559245 2.90546 0.474768 3.00933 0.417008L3.07133 0.386341L3.11533 0.369675L3.182 0.350341L3.25333 0.337674L3.33333 0.333008C3.37022 0.333008 3.406 0.335897 3.44067 0.341674L3.522 0.361008L3.54867 0.369008L3.58867 0.384341C3.80733 0.474341 3.96733 0.677674 3.99533 0.921674L4 0.999674V1.66634H8V0.999674C8 0.822863 8.07024 0.653294 8.19526 0.52827C8.32029 0.403246 8.48986 0.333008 8.66667 0.333008ZM10.6667 4.99967H1.33333V11.4163C1.33333 11.8863 1.59067 12.2737 1.922 12.327L2 12.333H10C10.342 12.333 10.624 11.9797 10.662 11.523L10.6667 11.4163V4.99967Z" fill="#7F888C"/>
<path d="M4.00997 7.66628C4.00997 7.84309 3.93974 8.01266 3.81471 8.13769C3.68969 8.26271 3.52012 8.33295 3.34331 8.33295C3.25326 8.3372 3.16329 8.32316 3.07883 8.29168C2.99436 8.2602 2.91715 8.21194 2.85184 8.1498C2.78654 8.08766 2.7345 8.01293 2.69887 7.93013C2.66324 7.84733 2.64476 7.75817 2.64453 7.66803C2.64431 7.57788 2.66235 7.48863 2.69756 7.40565C2.73278 7.32267 2.78444 7.24769 2.84943 7.18522C2.91442 7.12276 2.99139 7.07411 3.0757 7.04221C3.16001 7.01031 3.24991 6.99582 3.33997 6.99962C3.71131 6.99962 4.00997 7.29828 4.00997 7.66628ZM6.67664 7.66628C6.67664 7.84309 6.6064 8.01266 6.48138 8.13769C6.35635 8.26271 6.18678 8.33295 6.00997 8.33295C5.91993 8.3372 5.82996 8.32316 5.74549 8.29168C5.66103 8.2602 5.58381 8.21194 5.51851 8.1498C5.45321 8.08766 5.40117 8.01293 5.36554 7.93013C5.32991 7.84733 5.31143 7.75817 5.3112 7.66803C5.31097 7.57788 5.32901 7.48863 5.36423 7.40565C5.39945 7.32267 5.45111 7.24769 5.5161 7.18522C5.58109 7.12276 5.65806 7.07411 5.74237 7.04221C5.82668 7.01031 5.91658 6.99582 6.00664 6.99962C6.37797 6.99962 6.67664 7.29828 6.67664 7.66628ZM9.34664 7.66628C9.34664 7.84309 9.2764 8.01266 9.15138 8.13769C9.02635 8.26271 8.85678 8.33295 8.67997 8.33295C8.58993 8.3372 8.49996 8.32316 8.41549 8.29168C8.33103 8.2602 8.25381 8.21194 8.18851 8.1498C8.12321 8.08766 8.07117 8.01293 8.03554 7.93013C7.99991 7.84733 7.98143 7.75817 7.9812 7.66803C7.98097 7.57788 7.99901 7.48863 8.03423 7.40565C8.06945 7.32267 8.12111 7.24769 8.1861 7.18522C8.25109 7.12276 8.32806 7.07411 8.41237 7.04221C8.49668 7.01031 8.58658 6.99582 8.67664 6.99962C9.04797 6.99962 9.34664 7.29828 9.34664 7.66628ZM6.01331 8.99962C6.19012 8.99962 6.35969 9.06985 6.48471 9.19488C6.60974 9.3199 6.67997 9.48947 6.67997 9.66628C6.67997 9.84309 6.60974 10.0127 6.48471 10.1377C6.35969 10.2627 6.19012 10.3329 6.01331 10.3329C5.92326 10.3372 5.83329 10.3232 5.74883 10.2917C5.66436 10.2602 5.58715 10.2119 5.52184 10.1498C5.45654 10.0877 5.4045 10.0129 5.36887 9.93013C5.33324 9.84733 5.31476 9.75817 5.31453 9.66803C5.31431 9.57788 5.33235 9.48863 5.36756 9.40565C5.40278 9.32267 5.45444 9.24769 5.51943 9.18522C5.58442 9.12276 5.66139 9.07411 5.7457 9.04221C5.83001 9.01031 5.91991 8.99582 6.00997 8.99962H6.01331ZM4.00997 9.66628C4.00997 9.84309 3.93974 10.0127 3.81471 10.1377C3.68969 10.2627 3.52012 10.3329 3.34331 10.3329C3.25326 10.3372 3.16329 10.3232 3.07883 10.2917C2.99436 10.2602 2.91715 10.2119 2.85184 10.1498C2.78654 10.0877 2.7345 10.0129 2.69887 9.93013C2.66324 9.84733 2.64476 9.75817 2.64453 9.66803C2.64431 9.57788 2.66235 9.48863 2.69756 9.40565C2.73278 9.32267 2.78444 9.24769 2.84943 9.18522C2.91442 9.12276 2.99139 9.07411 3.0757 9.04221C3.16001 9.01031 3.24991 8.99582 3.33997 8.99962C3.71131 8.99962 4.00997 9.29828 4.00997 9.66628Z" fill="#7F888C"/>
</svg>
