<svg width="41" height="36" viewBox="0 0 41 36" fill="none" xmlns="http://www.w3.org/2000/svg">
<path d="M6.5 8H8.5C9.56087 8 10.5783 7.57857 11.3284 6.82843C12.0786 6.07828 12.5 5.06087 12.5 4C12.5 3.46957 12.7107 2.96086 13.0858 2.58579C13.4609 2.21071 13.9696 2 14.5 2H26.5C27.0304 2 27.5391 2.21071 27.9142 2.58579C28.2893 2.96086 28.5 3.46957 28.5 4C28.5 5.06087 28.9214 6.07828 29.6716 6.82843C30.4217 7.57857 31.4391 8 32.5 8H34.5C35.5609 8 36.5783 8.42143 37.3284 9.17157C38.0786 9.92172 38.5 10.9391 38.5 12V30C38.5 31.0609 38.0786 32.0783 37.3284 32.8284C36.5783 33.5786 35.5609 34 34.5 34H6.5C5.43913 34 4.42172 33.5786 3.67157 32.8284C2.92143 32.0783 2.5 31.0609 2.5 30V12C2.5 10.9391 2.92143 9.92172 3.67157 9.17157C4.42172 8.42143 5.43913 8 6.5 8Z" stroke="white" stroke-width="4" stroke-linecap="round" stroke-linejoin="round"/>
<path d="M14.5 20C14.5 21.5913 15.1321 23.1174 16.2574 24.2426C17.3826 25.3679 18.9087 26 20.5 26C22.0913 26 23.6174 25.3679 24.7426 24.2426C25.8679 23.1174 26.5 21.5913 26.5 20C26.5 18.4087 25.8679 16.8826 24.7426 15.7574C23.6174 14.6321 22.0913 14 20.5 14C18.9087 14 17.3826 14.6321 16.2574 15.7574C15.1321 16.8826 14.5 18.4087 14.5 20Z" stroke="white" stroke-width="4" stroke-linecap="round" stroke-linejoin="round"/>
</svg>
