<svg width="16" height="16" viewBox="0 0 16 16" fill="none" xmlns="http://www.w3.org/2000/svg">
<path d="M11.3334 2.22627C12.3468 2.8114 13.1884 3.65299 13.7736 4.66646C14.3587 5.67993 14.6667 6.82956 14.6667 7.99981C14.6667 9.17007 14.3586 10.3197 13.7735 11.3332C13.1884 12.3466 12.3468 13.1882 11.3333 13.7733C10.3198 14.3584 9.17019 14.6665 7.99993 14.6664C6.82968 14.6664 5.68005 14.3584 4.6666 13.7732C3.65314 13.1881 2.81157 12.3465 2.22646 11.333C1.64136 10.3195 1.33334 9.16985 1.33337 7.9996L1.33671 7.7836C1.37404 6.63226 1.70907 5.51024 2.30913 4.52693C2.90919 3.54362 3.75381 2.73257 4.76064 2.17286C5.76746 1.61314 6.90214 1.32387 8.05404 1.33323C9.20595 1.34259 10.3358 1.65027 11.3334 2.22627ZM8.00004 9.9996C7.82323 9.9996 7.65366 10.0698 7.52864 10.1949C7.40361 10.3199 7.33337 10.4895 7.33337 10.6663V10.6729C7.33337 10.8497 7.40361 11.0193 7.52864 11.1443C7.65366 11.2694 7.82323 11.3396 8.00004 11.3396C8.17685 11.3396 8.34642 11.2694 8.47144 11.1443C8.59647 11.0193 8.66671 10.8497 8.66671 10.6729V10.6663C8.66671 10.4895 8.59647 10.3199 8.47144 10.1949C8.34642 10.0698 8.17685 9.9996 8.00004 9.9996ZM8.00004 5.33294C7.82323 5.33294 7.65366 5.40317 7.52864 5.5282C7.40361 5.65322 7.33337 5.82279 7.33337 5.9996V8.66627C7.33337 8.84308 7.40361 9.01265 7.52864 9.13767C7.65366 9.2627 7.82323 9.33294 8.00004 9.33294C8.17685 9.33294 8.34642 9.2627 8.47144 9.13767C8.59647 9.01265 8.66671 8.84308 8.66671 8.66627V5.9996C8.66671 5.82279 8.59647 5.65322 8.47144 5.5282C8.34642 5.40317 8.17685 5.33294 8.00004 5.33294Z" fill="#E74C3C"/>
</svg>
