<svg width="14" height="15" viewBox="0 0 14 15" fill="none" xmlns="http://www.w3.org/2000/svg">
<path d="M4.99988 6.33301C4.99988 6.86344 5.21059 7.37215 5.58566 7.74722C5.96074 8.12229 6.46944 8.33301 6.99988 8.33301C7.53031 8.33301 8.03902 8.12229 8.41409 7.74722C8.78916 7.37215 8.99988 6.86344 8.99988 6.33301C8.99988 5.80257 8.78916 5.29387 8.41409 4.91879C8.03902 4.54372 7.53031 4.33301 6.99988 4.33301C6.46944 4.33301 5.96074 4.54372 5.58566 4.91879C5.21059 5.29387 4.99988 5.80257 4.99988 6.33301Z" stroke="black" stroke-width="1.5" stroke-linecap="round" stroke-linejoin="round"/>
<path d="M10.7713 10.1045L7.94263 12.9331C7.69262 13.1829 7.35368 13.3232 7.0003 13.3232C6.64691 13.3232 6.30797 13.1829 6.05796 12.9331L3.22863 10.1045C2.48278 9.35858 1.97485 8.40827 1.76909 7.37371C1.56332 6.33916 1.66896 5.26681 2.07263 4.29229C2.47631 3.31777 3.15989 2.48483 4.03695 1.89881C4.91401 1.31279 5.94514 1 6.99996 1C8.05478 1 9.08592 1.31279 9.96297 1.89881C10.84 2.48483 11.5236 3.31777 11.9273 4.29229C12.331 5.26681 12.4366 6.33916 12.2308 7.37371C12.0251 8.40827 11.5171 9.35858 10.7713 10.1045Z" stroke="black" stroke-width="1.5" stroke-linecap="round" stroke-linejoin="round"/>
</svg>
