<svg width="48" height="40" viewBox="0 0 48 40" fill="none" xmlns="http://www.w3.org/2000/svg">
<path fill-rule="evenodd" clip-rule="evenodd" d="M8.80752 4.00014C10.8735 0.124872 16.3192 0.00393295 18.5966 3.63686L19.0185 4.36342C21.2222 7.88012 26.3928 7.88002 28.5966 4.36342L29.0185 3.63686C31.296 0.00406861 36.7416 0.124763 38.8075 4.00014L45.1903 15.9748C48.6218 22.4133 45.529 29.9261 39.4628 32.6056L27.8505 38.713C27.0042 39.158 26.0758 38.275 26.4774 37.4074L28.2313 33.6193H13.0165C3.95903 33.6193 -1.83331 23.9679 2.42666 15.9748L8.80752 4.00014ZM17.6864 16.2912C16.2549 16.2913 15.0949 17.7421 15.0946 19.5314C15.0946 21.321 16.2548 22.7715 17.6864 22.7716C19.118 22.7714 20.2782 21.3209 20.2782 19.5314C20.2779 17.7422 19.1178 16.2914 17.6864 16.2912ZM29.8622 16.2912C28.4306 16.2912 27.2687 17.742 27.2685 19.5314C27.2685 21.3211 28.4305 22.7716 29.8622 22.7716C31.2935 22.771 32.454 21.3207 32.454 19.5314C32.4537 17.7424 31.2934 16.2917 29.8622 16.2912Z" fill="#C8D1D5"/>
</svg>
