<svg width="96" height="40" viewBox="0 0 96 40" fill="none" xmlns="http://www.w3.org/2000/svg">
<path fill-rule="evenodd" clip-rule="evenodd" d="M4.6241 11.6C5.70874 9.56546 8.56772 9.50197 9.76335 11.4093L9.98484 11.7907C11.1418 13.637 13.8564 13.6369 15.0134 11.7907L15.2348 11.4093C16.4305 9.50204 19.2895 9.5654 20.3741 11.6L23.7251 17.8866C25.5266 21.2669 23.9029 25.2111 20.7181 26.6178L14.6217 29.8242C14.1774 30.0579 13.6899 29.5943 13.9008 29.1388L14.8216 27.15H6.83381C2.07863 27.15 -0.962343 22.0831 1.27414 17.8866L4.6241 11.6ZM9.28552 18.0528C8.53399 18.0528 7.92497 18.8145 7.92483 19.7539C7.92483 20.6934 8.5339 21.4549 9.28552 21.455C10.0371 21.4549 10.6462 20.6934 10.6462 19.7539C10.6461 18.8145 10.037 18.0529 9.28552 18.0528ZM15.6778 18.0528C14.9262 18.0528 14.3162 18.8145 14.3161 19.7539C14.3161 20.6935 14.9261 21.455 15.6778 21.455C16.4293 21.4547 17.0385 20.6933 17.0385 19.7539C17.0384 18.8147 16.4292 18.0531 15.6778 18.0528Z" fill="url(#paint0_linear_660_3281)"/>
<path d="M86.6619 13.168C88.5534 13.168 89.997 13.6492 90.9925 14.6115C92.0047 15.5573 92.5108 16.9843 92.5108 18.8924V26.6577H89.4992V24.8409C89.1508 25.488 88.6364 25.9857 87.9561 26.3342C87.2758 26.666 86.4628 26.832 85.517 26.832C84.0734 26.832 82.9285 26.4669 82.0823 25.7369C81.2361 24.9902 80.813 24.0278 80.813 22.8497C80.813 21.6385 81.2444 20.6844 82.1072 19.9875C82.97 19.274 84.3057 18.9173 86.1143 18.9173H89.3001C89.3001 18.3532 89.2171 17.8969 89.0512 17.5484C88.6862 16.4201 87.7487 15.856 86.2388 15.856C85.5253 15.856 84.8284 15.9804 84.1481 16.2293C83.4844 16.4616 82.912 16.7769 82.4308 17.1751L81.261 14.8355C81.9413 14.3046 82.7543 13.898 83.7001 13.616C84.6625 13.3173 85.6497 13.168 86.6619 13.168ZM86.2885 24.5422C87.002 24.5422 87.6242 24.368 88.1552 24.0195C88.6862 23.6711 89.0678 23.165 89.3001 22.5013V20.9084H86.4628C84.7869 20.9084 83.949 21.5057 83.949 22.7004C83.949 23.2646 84.1564 23.7126 84.5712 24.0444C84.986 24.3763 85.5585 24.5422 86.2885 24.5422Z" fill="#3A3E40"/>
<path d="M74.2858 26.832C72.9584 26.832 71.7637 26.5416 70.7018 25.9609C69.6565 25.3801 68.8351 24.5671 68.2378 23.5217C67.6405 22.4764 67.3418 21.2983 67.3418 19.9875C67.3418 18.6767 67.6405 17.5069 68.2378 16.4782C68.8351 15.4329 69.6565 14.6198 70.7018 14.0391C71.7637 13.4583 72.9584 13.168 74.2858 13.168C75.5634 13.168 76.6834 13.45 77.6458 14.0142C78.6082 14.5617 79.3216 15.3499 79.7862 16.3786L77.2974 17.7973C76.6005 16.5695 75.5883 15.9555 74.2609 15.9555C73.199 15.9555 72.3196 16.3206 71.6227 17.0506C70.9424 17.7807 70.6022 18.7597 70.6022 19.9875C70.6022 21.232 70.9424 22.2192 71.6227 22.9493C72.3196 23.6794 73.199 24.0444 74.2609 24.0444C75.6049 24.0444 76.6171 23.4305 77.2974 22.2026L79.7862 23.6462C79.3051 24.6583 78.5833 25.4465 77.6209 26.0106C76.6585 26.5582 75.5468 26.832 74.2858 26.832Z" fill="#3A3E40"/>
<path d="M59.3798 26.832C58.069 26.832 56.8909 26.5416 55.8456 25.9609C54.8003 25.3801 53.9789 24.5671 53.3816 23.5217C52.8009 22.4764 52.5105 21.2983 52.5105 19.9875C52.5105 18.6767 52.8009 17.5069 53.3816 16.4782C53.9789 15.4329 54.8003 14.6198 55.8456 14.0391C56.8909 13.4583 58.069 13.168 59.3798 13.168C60.6741 13.168 61.8355 13.4583 62.8643 14.0391C63.9096 14.6198 64.7226 15.4329 65.3034 16.4782C65.8841 17.5069 66.1745 18.6767 66.1745 19.9875C66.1745 21.2983 65.8841 22.4764 65.3034 23.5217C64.7226 24.5671 63.9096 25.3801 62.8643 25.9609C61.8355 26.5416 60.6741 26.832 59.3798 26.832ZM59.3798 24.0444C60.4086 24.0444 61.2548 23.6794 61.9185 22.9493C62.5988 22.2026 62.9389 21.2154 62.9389 19.9875C62.9389 18.7597 62.5988 17.7807 61.9185 17.0506C61.2548 16.3206 60.4086 15.9555 59.3798 15.9555C58.3345 15.9555 57.4717 16.3206 56.7914 17.0506C56.1111 17.7807 55.7709 18.7597 55.7709 19.9875C55.7709 21.2154 56.1111 22.2026 56.7914 22.9493C57.4717 23.6794 58.3345 24.0444 59.3798 24.0444Z" fill="#3A3E40"/>
<path d="M45.328 13.168C46.9042 13.168 48.1487 13.6575 49.0613 14.6364C49.9905 15.6154 50.4551 17.0672 50.4551 18.992V26.6577H47.2693V19.5146C47.2693 18.3863 47.0287 17.5318 46.5475 16.9511C46.0829 16.3703 45.4275 16.08 44.5813 16.08C43.6189 16.08 42.8474 16.4118 42.2666 17.0755C41.7025 17.7226 41.4204 18.6601 41.4204 19.888V26.6577H38.2346V19.5146C38.2346 18.3697 38.0023 17.5152 37.5377 16.9511C37.0731 16.3703 36.4094 16.08 35.5466 16.08C34.5842 16.08 33.821 16.4118 33.2568 17.0755C32.6927 17.7226 32.4106 18.6601 32.4106 19.888V26.6577H29.2V13.3422H32.2613V15.1591C32.7259 14.512 33.3149 14.0225 34.0284 13.6906C34.7419 13.3422 35.5383 13.168 36.4177 13.168C37.3635 13.168 38.2014 13.3754 38.9315 13.7902C39.6782 14.1884 40.2589 14.7857 40.6737 15.5822C41.1715 14.8189 41.8186 14.2299 42.6151 13.8151C43.4281 13.3837 44.3324 13.168 45.328 13.168Z" fill="#3A3E40"/>
<defs>
<linearGradient id="paint0_linear_660_3281" x1="12.4994" y1="10.025" x2="14.5994" y2="39.6877" gradientUnits="userSpaceOnUse">
<stop stop-color="#EBF7CE"/>
<stop offset="1" stop-color="#A4CC08"/>
</linearGradient>
</defs>
</svg>
