<svg width="108" height="84" viewBox="0 0 108 84" fill="none" xmlns="http://www.w3.org/2000/svg">
<path fill-rule="evenodd" clip-rule="evenodd" d="M18.4954 8.39991C22.834 0.261841 34.2699 0.00786877 39.0524 7.63702L39.9384 9.1628C44.5662 16.5479 55.4245 16.5476 60.0524 9.1628L60.9384 7.63702C65.7211 0.00815344 77.1571 0.261612 81.4954 8.39991L94.8993 33.5466C102.105 47.0675 95.6105 62.8445 82.8715 68.4714L58.4856 81.297C56.7085 82.2315 54.7588 80.3772 55.6022 78.5551L59.2854 70.6001H27.3343C8.31356 70.6001 -3.85035 50.3322 5.0956 33.5466L18.4954 8.39991ZM37.1411 34.211C34.135 34.2113 31.6989 37.258 31.6983 41.0155C31.6983 44.7737 34.1346 47.8198 37.1411 47.82C40.1474 47.8195 42.5839 44.7735 42.5839 41.0155C42.5833 37.2582 40.147 34.2116 37.1411 34.211ZM62.7102 34.211C59.704 34.211 57.264 37.2579 57.2634 41.0155C57.2634 44.7738 59.7036 47.82 62.7102 47.82C65.716 47.8188 68.153 44.7731 68.153 41.0155C68.1524 37.2586 65.7157 34.2123 62.7102 34.211Z" fill="url(#paint0_linear_1344_5024)"/>
<g clip-path="url(#clip0_1344_5024)">
<path d="M38.2205 71.0312C38.3638 70.7312 38.438 70.4028 38.4375 70.0703V47.6484C38.4375 47.0538 38.2013 46.4835 37.7808 46.063C37.3603 45.6425 36.79 45.4062 36.1953 45.4062H4.80469C4.21002 45.4062 3.63971 45.6425 3.21922 46.063C2.79873 46.4835 2.5625 47.0538 2.5625 47.6484V70.0703C2.56203 70.4028 2.63619 70.7312 2.77951 71.0312H0V73.5938H41V71.0312H38.2205Z" fill="url(#paint1_linear_1344_5024)"/>
</g>
<path d="M97.4999 72.1098C97.4167 72.6246 97.1574 73.0945 96.7661 73.4393C96.3749 73.784 95.876 73.9821 95.3549 73.9998H84.6449C84.1107 73.9996 83.5941 73.8093 83.1873 73.463C82.7806 73.1167 82.5103 72.6371 82.4249 72.1098L79.8149 55.1748C79.7928 54.9958 79.7057 54.8313 79.5702 54.7123C79.4347 54.5934 79.2602 54.5284 79.0799 54.5298H77.2649C76.867 54.5298 76.4855 54.3718 76.2042 54.0905C75.9229 53.8092 75.7649 53.4276 75.7649 53.0298C75.7649 52.632 75.9229 52.2504 76.2042 51.9691C76.4855 51.6878 76.867 51.5298 77.2649 51.5298H79.0049C79.1781 51.5286 79.3454 51.4662 79.4771 51.3537C79.6088 51.2412 79.6966 51.0857 79.7249 50.9148C80.223 48.4496 81.5979 46.2486 83.5949 44.7198C83.9109 44.5055 84.2967 44.4198 84.6737 44.4802C85.0508 44.5405 85.3906 44.7424 85.6239 45.0446C85.8573 45.3468 85.9666 45.7266 85.9296 46.1066C85.8926 46.4866 85.7121 46.8383 85.4249 47.0898C84.2753 47.9652 83.4092 49.1599 82.9349 50.5248C82.893 50.636 82.8793 50.7558 82.895 50.8736C82.9107 50.9914 82.9553 51.1034 83.0249 51.1998C83.092 51.3015 83.1833 51.3848 83.2907 51.4425C83.398 51.5001 83.518 51.5301 83.6399 51.5298H87.1049C87.2177 51.5304 87.3292 51.505 87.4306 51.4556C87.5321 51.4061 87.6208 51.334 87.6899 51.2448C87.7611 51.1611 87.8117 51.0619 87.8378 50.9551C87.8638 50.8483 87.8645 50.7369 87.8399 50.6298L86.1299 41.9598C86.1051 41.8469 86.0551 41.7411 85.9836 41.6503C85.9121 41.5595 85.821 41.4861 85.7171 41.4356C85.6131 41.3851 85.4991 41.3588 85.3836 41.3586C85.268 41.3585 85.1539 41.3845 85.0499 41.4348L80.1749 43.8648C79.9977 43.9767 79.799 44.0502 79.5917 44.0806C79.3843 44.111 79.1729 44.0976 78.9711 44.0413C78.7692 43.985 78.5814 43.8871 78.4197 43.7537C78.2581 43.6204 78.1261 43.4547 78.0324 43.2673C77.9387 43.0798 77.8853 42.8749 77.8756 42.6655C77.866 42.4562 77.9003 42.2472 77.9764 42.0519C78.0524 41.8567 78.1686 41.6795 78.3173 41.5319C78.466 41.3842 78.644 41.2694 78.8399 41.1948L84.5999 38.3148C85.0108 38.1135 85.4623 38.0088 85.9199 38.0088C86.3774 38.0088 86.829 38.1135 87.2399 38.3148C87.6556 38.5154 88.0194 38.8093 88.303 39.1736C88.5866 39.5378 88.7823 39.9626 88.8749 40.4148L90.9599 50.9148C90.9886 51.0883 91.0785 51.2457 91.2133 51.3586C91.3482 51.4714 91.519 51.5322 91.6949 51.5298H96.3599C96.4814 51.5288 96.601 51.4982 96.7081 51.4407C96.8152 51.3832 96.9068 51.3005 96.9749 51.1998C97.041 51.1019 97.0835 50.99 97.0991 50.8729C97.1147 50.7558 97.103 50.6366 97.0649 50.5248C96.6548 49.3681 95.9672 48.3297 95.0623 47.5006C94.1575 46.6716 93.063 46.0773 91.8749 45.7698C91.489 45.6703 91.1584 45.4217 90.9559 45.0785C90.7533 44.7353 90.6954 44.3257 90.7949 43.9398C90.8943 43.5539 91.143 43.2233 91.4862 43.0208C91.8294 42.8183 92.239 42.7603 92.6249 42.8598C94.5248 43.3564 96.2474 44.3758 97.5971 45.8023C98.9467 47.2289 99.8692 49.0053 100.26 50.9298C100.294 51.0992 100.386 51.2515 100.52 51.3608C100.654 51.4701 100.822 51.5298 100.995 51.5298H102.735C103.133 51.5298 103.514 51.6878 103.796 51.9691C104.077 52.2504 104.235 52.632 104.235 53.0298C104.235 53.4276 104.077 53.8092 103.796 54.0905C103.514 54.3718 103.133 54.5298 102.735 54.5298H100.92C100.74 54.5284 100.565 54.5934 100.43 54.7123C100.294 54.8313 100.207 54.9958 100.185 55.1748L97.4999 72.1098ZM83.6249 54.4998C83.5165 54.5035 83.41 54.5294 83.3119 54.5759C83.2139 54.6223 83.1264 54.6883 83.0549 54.7698C82.986 54.8522 82.9357 54.9484 82.9072 55.0519C82.8787 55.1554 82.8728 55.2638 82.8899 55.3698L83.3549 58.3698C83.3803 58.546 83.4688 58.707 83.604 58.8229C83.7392 58.9388 83.9118 59.0016 84.0899 58.9998H88.4999C88.609 58.9999 88.7167 58.9757 88.8153 58.929C88.9139 58.8823 89.0008 58.8143 89.0699 58.7298C89.1391 58.6447 89.1895 58.5459 89.218 58.4399C89.2464 58.3339 89.2522 58.2231 89.2349 58.1148L88.6499 55.1148C88.6212 54.9413 88.5312 54.7839 88.3964 54.671C88.2615 54.5582 88.0907 54.4974 87.9149 54.4998H83.6249ZM92.3999 58.3998C92.4286 58.5733 92.5185 58.7307 92.6533 58.8436C92.7882 58.9564 92.959 59.0172 93.1349 59.0148H95.9099C96.0879 59.0166 96.2605 58.9538 96.3957 58.8379C96.5309 58.722 96.6194 58.561 96.6449 58.3848L97.1099 55.3848C97.1269 55.2788 97.121 55.1704 97.0925 55.0669C97.0641 54.9634 97.0137 54.8672 96.9449 54.7848C96.8747 54.7005 96.7878 54.6317 96.6897 54.5827C96.5916 54.5336 96.4844 54.5054 96.3749 54.4998H92.5499C92.4409 54.5007 92.3335 54.5253 92.2351 54.572C92.1367 54.6186 92.0496 54.6861 91.9799 54.7698C91.9094 54.8572 91.8583 54.9585 91.8299 55.0671C91.8015 55.1757 91.7963 55.2891 91.8149 55.3998L92.3999 58.3998Z" fill="url(#paint2_linear_1344_5024)"/>
<defs>
<linearGradient id="paint0_linear_1344_5024" x1="49.9968" y1="2.0999" x2="58.3965" y2="120.751" gradientUnits="userSpaceOnUse">
<stop stop-color="#EBF7CE"/>
<stop offset="1" stop-color="#A4CC08"/>
</linearGradient>
<linearGradient id="paint1_linear_1344_5024" x1="20.5" y1="45.4062" x2="20.5" y2="73.5938" gradientUnits="userSpaceOnUse">
<stop stop-color="#687A1F"/>
<stop offset="1" stop-color="#A4CC08"/>
</linearGradient>
<linearGradient id="paint2_linear_1344_5024" x1="89.9999" y1="73.9998" x2="89.9999" y2="38.0088" gradientUnits="userSpaceOnUse">
<stop stop-color="#A4CC08"/>
<stop offset="1" stop-color="#687A1F"/>
</linearGradient>
<clipPath id="clip0_1344_5024">
<rect width="41" height="41" fill="white" transform="translate(0 39)"/>
</clipPath>
</defs>
</svg>
