<svg width="160" height="115" viewBox="0 0 160 115" fill="none" xmlns="http://www.w3.org/2000/svg">
<path d="M127.179 38.0344C133.757 31.6484 145.005 34.6708 147.322 43.7705L154.482 71.8856C158.331 87.0026 148.086 101.031 134.124 103.507L106.902 110.277C104.918 110.771 103.44 108.466 104.715 106.869L110.284 99.8954L78.6891 92.1519C59.8805 87.5419 52.7643 64.5515 65.6786 50.1211L85.0235 28.502C91.2859 21.5049 102.656 24.0262 105.536 32.73L106.043 34.4529C108.83 42.8773 119.567 45.5086 125.933 39.3277L127.179 38.0344ZM97.2066 58.5449C94.2337 57.8166 91.0858 60.2383 90.1748 63.9543C89.2641 67.6705 90.9355 71.2733 93.9084 72.0021C96.8814 72.7304 100.028 70.3087 100.939 66.5925C101.85 62.8764 100.179 59.2738 97.2066 58.5449ZM122.491 64.7417C119.517 64.013 116.366 66.434 115.455 70.1501C114.544 73.8665 116.219 77.4702 119.192 78.1989C122.165 78.9267 125.312 76.5051 126.223 72.7893C127.134 69.0734 125.463 65.4709 122.491 64.7417Z" fill="url(#paint0_linear_313_2436)"/>
<path d="M54.009 8.55626C47.2143 3.73777 37.5093 4.13161 31.227 9.48859C24.8366 14.9414 23.9636 23.8447 29.2195 30.2229C34.1704 36.2299 43.0998 38.2096 50.5341 35.1111L50.9401 34.9351L58.5626 36.5575L58.6323 36.568L58.6933 36.5802H58.7246L58.763 36.5889H58.8292L58.8867 36.5959L58.9233 36.5941L58.9634 36.5959L59.0209 36.5906H59.0819L59.1202 36.5837L59.1586 36.5802L59.2196 36.568L59.2788 36.5593L59.3067 36.5523L59.3485 36.5436L59.4339 36.5157L59.4757 36.507L59.4949 36.4983L59.5332 36.4861L59.6117 36.4512L59.6639 36.4303L59.6831 36.4199L59.7075 36.4094L59.7615 36.378L59.84 36.3362L59.8678 36.317L59.9323 36.2717L60.002 36.2247L60.0055 36.2177L60.0282 36.202L60.1031 36.1323L60.1467 36.0975L60.1571 36.0853L60.2547 35.9772L60.2774 35.9528L60.2965 35.9284L60.3645 35.8308L60.3889 35.7977L60.3976 35.7803L60.4708 35.6531L60.483 35.6322L60.49 35.6182L60.5022 35.5973L60.5266 35.5311L60.5614 35.4579L60.5684 35.43L60.5754 35.4126L60.605 35.3063L60.6172 35.2749L60.6207 35.2488L60.6294 35.2157L60.6381 35.1582L60.652 35.085L60.6555 35.0309L60.6608 35.0135V34.9856L60.6677 34.8915L60.666 34.8288L60.6642 34.7887L60.6608 34.6963L60.6538 34.6528V34.6197L60.6398 34.5587L60.6311 34.4994L60.6224 34.4646L60.6154 34.4297L60.5841 34.3252L60.5788 34.3025L58.5748 28.2903L58.6131 28.2258C62.4644 21.696 60.72 13.603 54.408 8.84903L54.009 8.55626Z" fill="white" fill-opacity="0.8"/>
<path d="M34.506 53.3837C30.3464 53.1734 26.3571 55.943 25.1435 59.8887C23.9099 63.9038 25.9299 67.8947 29.8587 69.1759C33.5591 70.3824 37.8579 68.8222 40.1635 65.5205L40.2876 65.3373L43.9391 63.9771L43.9713 63.9628L44.0003 63.9515L44.0135 63.9431L44.032 63.9365L44.06 63.9188L44.0861 63.9063L44.1011 63.8957L44.1185 63.8857L44.1413 63.8681L44.1671 63.8517L44.1814 63.8385L44.1966 63.8267L44.2191 63.8052L44.2418 63.7856L44.2516 63.7752L44.267 63.7603L44.2955 63.7257L44.3108 63.7108L44.3166 63.7019L44.3295 63.6865L44.3532 63.6508L44.3697 63.6279L44.3749 63.6184L44.3824 63.6074L44.3968 63.5797L44.4187 63.541L44.4253 63.5254L44.4404 63.489L44.4571 63.4505L44.4567 63.4466L44.4621 63.4339L44.475 63.3844L44.484 63.358L44.4852 63.35L44.4974 63.2783L44.5004 63.2619L44.5019 63.2464L44.5044 63.187L44.5058 63.1665L44.5048 63.1568L44.5016 63.0835L44.5011 63.0714L44.5003 63.0637L44.4999 63.0516L44.4924 63.0171L44.4875 62.9769L44.4829 62.9632L44.4812 62.954L44.4652 62.9012L44.4619 62.8847L44.4564 62.8727L44.4512 62.8564L44.4394 62.8298L44.4257 62.7952L44.4126 62.7715L44.4102 62.7627L44.4027 62.7509L44.3804 62.7094L44.3628 62.6834L44.3513 62.6669L44.3251 62.6289L44.3105 62.6124L44.3016 62.5984L44.2793 62.5764L44.2598 62.5537L44.2467 62.5414L44.2345 62.5285L44.1932 62.4928L44.1849 62.4847L41.7264 60.4855L41.7253 60.448C41.5986 56.6596 38.6915 53.7128 34.7529 53.4002L34.506 53.3837Z" fill="white" fill-opacity="0.8"/>
<circle cx="70.2524" cy="27.8828" r="3.48535" fill="white" fill-opacity="0.5"/>
<circle cx="49.3403" cy="51.4092" r="1.74267" fill="white" fill-opacity="0.5"/>
<circle cx="8.38751" cy="46.1811" r="3.48535" fill="white" fill-opacity="0.5"/>
<circle cx="2.28814" cy="65.3506" r="1.74267" fill="white" fill-opacity="0.5"/>
<circle cx="49.3403" cy="87.1338" r="3.48535" fill="white" fill-opacity="0.5"/>
<defs>
<linearGradient id="paint0_linear_313_2436" x1="117.702" y1="29.9061" x2="97.2524" y2="149.27" gradientUnits="userSpaceOnUse">
<stop stop-color="white"/>
<stop offset="1" stop-color="#BFD194"/>
</linearGradient>
</defs>
</svg>
