<svg width="44" height="49" viewBox="0 0 44 49" fill="none" xmlns="http://www.w3.org/2000/svg">
<g filter="url(#filter0_d_150_1254)">
<path d="M22 4.5C29.4558 4.5 35.5 10.5442 35.5 18C35.5 19.3032 35.0688 20.7833 34.3271 22.3545C33.5877 23.9209 32.5547 25.5465 31.3877 27.1328C29.0535 30.3057 26.2128 33.2801 24.2021 35.25C22.9636 36.463 21.0364 36.463 19.7979 35.25C17.7872 33.2801 14.9465 30.3057 12.6123 27.1328C11.4453 25.5465 10.4123 23.9209 9.67285 22.3545C8.93121 20.7833 8.5 19.3032 8.5 18C8.5 10.5442 14.5442 4.5 22 4.5Z" fill="#A9C247" stroke="#95AC39"/>
<path fill-rule="evenodd" clip-rule="evenodd" d="M23.7054 11.5048C24.4508 10.3156 26.2334 10.3551 26.9096 11.6237L28.999 15.5434C30.1218 17.6503 29.1105 20.1085 27.1261 20.9863L23.3231 22.9864C23.0461 23.132 22.7421 22.843 22.8736 22.559L23.4477 21.319H18.4674C15.5026 21.319 13.6066 18.1598 15.001 15.5434L17.0897 11.6237C17.7659 10.3551 19.5485 10.3156 20.2939 11.5048L20.432 11.7426C21.1534 12.8937 22.8459 12.8937 23.5673 11.7426L23.7054 11.5048ZM19.996 15.647C19.5274 15.647 19.1477 16.1219 19.1476 16.7076C19.1476 17.2934 19.5274 17.7682 19.996 17.7682C20.4646 17.7682 20.8444 17.2934 20.8444 16.7076C20.8444 16.1219 20.4646 15.647 19.996 15.647ZM23.9816 15.647C23.5129 15.647 23.1326 16.1218 23.1325 16.7076C23.1325 17.2934 23.5129 17.7682 23.9816 17.7682C24.4501 17.7681 24.8299 17.2933 24.8299 16.7076C24.8299 16.1219 24.4501 15.6471 23.9816 15.647Z" fill="white"/>
</g>
<defs>
<filter id="filter0_d_150_1254" x="0" y="0" width="44" height="55" filterUnits="userSpaceOnUse" color-interpolation-filters="sRGB">
<feFlood flood-opacity="0" result="BackgroundImageFix"/>
<feColorMatrix in="SourceAlpha" type="matrix" values="0 0 0 0 0 0 0 0 0 0 0 0 0 0 0 0 0 0 127 0" result="hardAlpha"/>
<feOffset dy="4"/>
<feGaussianBlur stdDeviation="4"/>
<feComposite in2="hardAlpha" operator="out"/>
<feColorMatrix type="matrix" values="0 0 0 0 0 0 0 0 0 0 0 0 0 0 0 0 0 0 0.18 0"/>
<feBlend mode="normal" in2="BackgroundImageFix" result="effect1_dropShadow_150_1254"/>
<feBlend mode="normal" in="SourceGraphic" in2="effect1_dropShadow_150_1254" result="shape"/>
</filter>
</defs>
</svg>
