<svg width="16" height="16" viewBox="0 0 16 16" fill="none" xmlns="http://www.w3.org/2000/svg">
<path d="M6 7.33301C6 7.86344 6.21071 8.37215 6.58579 8.74722C6.96086 9.12229 7.46957 9.33301 8 9.33301C8.53043 9.33301 9.03914 9.12229 9.41421 8.74722C9.78929 8.37215 10 7.86344 10 7.33301C10 6.80257 9.78929 6.29387 9.41421 5.91879C9.03914 5.54372 8.53043 5.33301 8 5.33301C7.46957 5.33301 6.96086 5.54372 6.58579 5.91879C6.21071 6.29387 6 6.80257 6 7.33301Z" stroke="white" stroke-width="1.5" stroke-linecap="round" stroke-linejoin="round"/>
<path d="M11.7717 11.1045L8.94299 13.9331C8.69298 14.1829 8.35405 14.3232 8.00066 14.3232C7.64727 14.3232 7.30834 14.1829 7.05833 13.9331L4.22899 11.1045C3.48314 10.3586 2.97522 9.40827 2.76945 8.37371C2.56369 7.33916 2.66932 6.26681 3.073 5.29229C3.47667 4.31777 4.16026 3.48483 5.03732 2.89881C5.91437 2.31279 6.94551 2 8.00033 2C9.05515 2 10.0863 2.31279 10.9633 2.89881C11.8404 3.48483 12.524 4.31777 12.9277 5.29229C13.3313 6.26681 13.437 7.33916 13.2312 8.37371C13.0254 9.40827 12.5175 10.3586 11.7717 11.1045Z" stroke="white" stroke-width="1.5" stroke-linecap="round" stroke-linejoin="round"/>
</svg>
