<svg width="127" height="249" viewBox="0 0 127 249" fill="none" xmlns="http://www.w3.org/2000/svg">
<mask id="path-1-inside-1_1344_5216" fill="white">
<path d="M115 0C121.627 9.98599e-07 127 5.37258 127 12V237C127 243.627 121.627 249 115 249H12C5.37258 249 0 243.627 0 237V12C3.76902e-06 5.37259 5.37259 0 12 0H115ZM19 65V185H109V65H19Z"/>
</mask>
<path d="M115 0C121.627 9.98599e-07 127 5.37258 127 12V237C127 243.627 121.627 249 115 249H12C5.37258 249 0 243.627 0 237V12C3.76902e-06 5.37259 5.37259 0 12 0H115ZM19 65V185H109V65H19Z" fill="white" fill-opacity="0.7"/>
<path d="M115 0V-2V0ZM127 237H129H127ZM12 249V251V249ZM0 12L-2 12V12H0ZM19 65V63H17V65H19ZM19 185H17V187H19V185ZM109 185V187H111V185H109ZM109 65H111V63H109V65ZM115 0V2C120.523 2 125 6.47715 125 12H127H129C129 4.26801 122.732 -2 115 -2V0ZM127 12H125V237H127H129V12H127ZM127 237H125C125 242.523 120.523 247 115 247V249V251C122.732 251 129 244.732 129 237H127ZM115 249V247H12V249V251H115V249ZM12 249V247C6.47715 247 2 242.523 2 237H0H-2C-2 244.732 4.26801 251 12 251V249ZM0 237H2V12H0H-2V237H0ZM0 12L2 12C2 6.47716 6.47716 2 12 2V0V-2C4.26801 -2 -2 4.26802 -2 12L0 12ZM12 0V2H115V0V-2H12V0ZM19 65H17V185H19H21V65H19ZM19 185V187H109V185V183H19V185ZM109 185H111V65H109H107V185H109ZM109 65V63H19V65V67H109V65Z" fill="white" mask="url(#path-1-inside-1_1344_5216)"/>
</svg>
