<svg width="24" height="24" viewBox="0 0 24 24" fill="none" xmlns="http://www.w3.org/2000/svg">
<path d="M20.9999 12L4.69793 4.03401C4.60494 3.99784 4.50325 3.99032 4.40595 4.01242C4.30865 4.03451 4.22018 4.08522 4.15193 4.15801C4.08193 4.23268 4.03374 4.32511 4.01258 4.42524C3.99143 4.52538 3.99812 4.62941 4.03193 4.72601L6.49993 12M20.9999 12L4.69793 19.966C4.60494 20.0022 4.50325 20.0097 4.40595 19.9876C4.30865 19.9655 4.22018 19.9148 4.15193 19.842C4.08193 19.7673 4.03374 19.6749 4.01258 19.5748C3.99143 19.4746 3.99812 19.3706 4.03193 19.274L6.49993 12M20.9999 12H6.49993" stroke="white" stroke-width="2" stroke-linecap="round" stroke-linejoin="round"/>
</svg>
